<mxfile host="embed.diagrams.net" agent="Mozilla/5.0 (X11; Linux x86_64; rv:129.0) Gecko/20100101 Firefox/129.0" version="24.7.10">
  <diagram id="C5RBs43oDa-KdzZeNtuy" name="Page-1">
    <mxGraphModel grid="1" page="1" gridSize="10" guides="1" tooltips="1" connect="1" arrows="1" fold="1" pageScale="1" pageWidth="827" pageHeight="1169" math="0" shadow="0">
      <root>
        <mxCell id="WIyWlLk6GJQsqaUBKTNV-0" />
        <mxCell id="WIyWlLk6GJQsqaUBKTNV-1" parent="WIyWlLk6GJQsqaUBKTNV-0" />
        <mxCell id="AEDuko17Ktxvkk8oFHkH-12" style="edgeStyle=orthogonalEdgeStyle;rounded=0;orthogonalLoop=1;jettySize=auto;html=1;" edge="1" parent="WIyWlLk6GJQsqaUBKTNV-1" source="nfv_wwdXfXc1_VH7iOFV-0" target="Cddfaaqkk3JFuBGHHAQz-0">
          <mxGeometry relative="1" as="geometry" />
        </mxCell>
        <mxCell id="nfv_wwdXfXc1_VH7iOFV-0" value="Studio" style="swimlane;fontStyle=1;align=center;verticalAlign=top;childLayout=stackLayout;horizontal=1;startSize=26;horizontalStack=0;resizeParent=1;resizeParentMax=0;resizeLast=0;collapsible=1;marginBottom=0;whiteSpace=wrap;html=1;fontFamily=Helvetica;fontSize=12;textShadow=0;labelBorderColor=none;spacingTop=0;" vertex="1" parent="WIyWlLk6GJQsqaUBKTNV-1">
          <mxGeometry x="120" y="30" width="160" height="130" as="geometry" />
        </mxCell>
        <mxCell id="nfv_wwdXfXc1_VH7iOFV-3" value="main()" style="text;strokeColor=none;fillColor=none;align=left;verticalAlign=top;spacingLeft=4;spacingRight=4;overflow=hidden;rotatable=0;points=[[0,0.5],[1,0.5]];portConstraint=eastwest;whiteSpace=wrap;html=1;fontFamily=Helvetica;fontSize=12;textShadow=0;labelBorderColor=none;horizontal=1;spacingTop=0;" vertex="1" parent="nfv_wwdXfXc1_VH7iOFV-0">
          <mxGeometry y="26" width="160" height="104" as="geometry" />
        </mxCell>
        <mxCell id="nfv_wwdXfXc1_VH7iOFV-4" value="Interface&lt;div style=&quot;font-size: 12px;&quot;&gt;AbstractMediaFactory&lt;/div&gt;" style="swimlane;fontStyle=0;childLayout=stackLayout;horizontal=1;startSize=40;fillColor=none;horizontalStack=0;resizeParent=1;resizeParentMax=0;resizeLast=0;collapsible=1;marginBottom=0;whiteSpace=wrap;html=1;fontFamily=Helvetica;fontSize=12;textShadow=0;labelBorderColor=none;spacingTop=0;" vertex="1" parent="WIyWlLk6GJQsqaUBKTNV-1">
          <mxGeometry x="286" y="200" width="256" height="92" as="geometry" />
        </mxCell>
        <mxCell id="nfv_wwdXfXc1_VH7iOFV-6" value="&lt;div&gt;create_movie(): Movie&lt;/div&gt;" style="text;strokeColor=none;fillColor=none;align=left;verticalAlign=top;spacingLeft=4;spacingRight=4;overflow=hidden;rotatable=0;points=[[0,0.5],[1,0.5]];portConstraint=eastwest;whiteSpace=wrap;html=1;fontFamily=Helvetica;fontSize=12;textShadow=0;labelBorderColor=none;horizontal=1;spacingTop=0;" vertex="1" parent="nfv_wwdXfXc1_VH7iOFV-4">
          <mxGeometry y="40" width="256" height="26" as="geometry" />
        </mxCell>
        <mxCell id="nfv_wwdXfXc1_VH7iOFV-5" value="create_trailer(): Trailer" style="text;strokeColor=none;fillColor=none;align=left;verticalAlign=top;spacingLeft=4;spacingRight=4;overflow=hidden;rotatable=0;points=[[0,0.5],[1,0.5]];portConstraint=eastwest;whiteSpace=wrap;html=1;fontFamily=Helvetica;fontSize=12;textShadow=0;labelBorderColor=none;horizontal=1;spacingTop=0;" vertex="1" parent="nfv_wwdXfXc1_VH7iOFV-4">
          <mxGeometry y="66" width="256" height="26" as="geometry" />
        </mxCell>
        <mxCell id="Cddfaaqkk3JFuBGHHAQz-4" style="edgeStyle=orthogonalEdgeStyle;rounded=0;orthogonalLoop=1;jettySize=auto;html=1;entryX=0.5;entryY=1;entryDx=0;entryDy=0;fontFamily=Helvetica;fontSize=12;textShadow=0;labelBorderColor=none;horizontal=1;spacingTop=0;" edge="1" parent="WIyWlLk6GJQsqaUBKTNV-1" source="nfv_wwdXfXc1_VH7iOFV-12" target="Cddfaaqkk3JFuBGHHAQz-0">
          <mxGeometry relative="1" as="geometry">
            <Array as="points">
              <mxPoint x="125" y="450" />
              <mxPoint x="200" y="450" />
            </Array>
          </mxGeometry>
        </mxCell>
        <mxCell id="nfv_wwdXfXc1_VH7iOFV-12" value="ActionMovie" style="html=1;whiteSpace=wrap;fontFamily=Helvetica;fontSize=12;textShadow=0;labelBorderColor=none;horizontal=1;spacingTop=0;fillColor=#dae8fc;strokeColor=#6c8ebf;" vertex="1" parent="WIyWlLk6GJQsqaUBKTNV-1">
          <mxGeometry x="70" y="470" width="110" height="50" as="geometry" />
        </mxCell>
        <mxCell id="Cddfaaqkk3JFuBGHHAQz-5" style="edgeStyle=orthogonalEdgeStyle;rounded=0;orthogonalLoop=1;jettySize=auto;html=1;entryX=0.5;entryY=1;entryDx=0;entryDy=0;fontFamily=Helvetica;fontSize=12;textShadow=0;labelBorderColor=none;horizontal=1;spacingTop=0;" edge="1" parent="WIyWlLk6GJQsqaUBKTNV-1" source="nfv_wwdXfXc1_VH7iOFV-13" target="Cddfaaqkk3JFuBGHHAQz-0">
          <mxGeometry relative="1" as="geometry">
            <Array as="points">
              <mxPoint x="315" y="450" />
              <mxPoint x="200" y="450" />
            </Array>
          </mxGeometry>
        </mxCell>
        <mxCell id="nfv_wwdXfXc1_VH7iOFV-13" value="DramaMovie" style="html=1;whiteSpace=wrap;fontFamily=Helvetica;fontSize=12;textShadow=0;labelBorderColor=none;horizontal=1;spacingTop=0;fillColor=#e1d5e7;strokeColor=#9673a6;" vertex="1" parent="WIyWlLk6GJQsqaUBKTNV-1">
          <mxGeometry x="260" y="470" width="110" height="50" as="geometry" />
        </mxCell>
        <mxCell id="nfv_wwdXfXc1_VH7iOFV-49" style="edgeStyle=orthogonalEdgeStyle;rounded=0;orthogonalLoop=1;jettySize=auto;html=1;exitX=1;exitY=0.5;exitDx=0;exitDy=0;entryX=0.5;entryY=1;entryDx=0;entryDy=0;fontFamily=Helvetica;fontSize=12;textShadow=0;labelBorderColor=none;horizontal=1;spacingTop=0;" edge="1" parent="WIyWlLk6GJQsqaUBKTNV-1" source="nfv_wwdXfXc1_VH7iOFV-14" target="Cddfaaqkk3JFuBGHHAQz-6">
          <mxGeometry relative="1" as="geometry">
            <mxPoint x="620" y="440" as="targetPoint" />
          </mxGeometry>
        </mxCell>
        <mxCell id="nfv_wwdXfXc1_VH7iOFV-14" value="ActionTrailer" style="html=1;whiteSpace=wrap;fontFamily=Helvetica;fontSize=12;textShadow=0;labelBorderColor=none;horizontal=1;spacingTop=0;fillColor=#dae8fc;strokeColor=#6c8ebf;" vertex="1" parent="WIyWlLk6GJQsqaUBKTNV-1">
          <mxGeometry x="470" y="480" width="110" height="50" as="geometry" />
        </mxCell>
        <mxCell id="Cddfaaqkk3JFuBGHHAQz-13" style="edgeStyle=orthogonalEdgeStyle;rounded=0;orthogonalLoop=1;jettySize=auto;html=1;fontFamily=Helvetica;fontSize=12;textShadow=0;labelBorderColor=none;horizontal=1;spacingTop=0;entryX=0.5;entryY=1;entryDx=0;entryDy=0;" edge="1" parent="WIyWlLk6GJQsqaUBKTNV-1" source="nfv_wwdXfXc1_VH7iOFV-15" target="Cddfaaqkk3JFuBGHHAQz-6">
          <mxGeometry relative="1" as="geometry">
            <mxPoint x="620" y="410" as="targetPoint" />
          </mxGeometry>
        </mxCell>
        <mxCell id="nfv_wwdXfXc1_VH7iOFV-15" value="DramaTrailer" style="html=1;whiteSpace=wrap;fontFamily=Helvetica;fontSize=12;textShadow=0;labelBorderColor=none;horizontal=1;spacingTop=0;fillColor=#e1d5e7;strokeColor=#9673a6;" vertex="1" parent="WIyWlLk6GJQsqaUBKTNV-1">
          <mxGeometry x="660" y="480" width="110" height="50" as="geometry" />
        </mxCell>
        <mxCell id="nfv_wwdXfXc1_VH7iOFV-34" style="edgeStyle=orthogonalEdgeStyle;rounded=0;orthogonalLoop=1;jettySize=auto;html=1;exitX=0.5;exitY=0;exitDx=0;exitDy=0;entryX=0.5;entryY=1;entryDx=0;entryDy=0;fontFamily=Helvetica;fontSize=12;textShadow=0;labelBorderColor=none;horizontal=1;spacingTop=0;" edge="1" parent="WIyWlLk6GJQsqaUBKTNV-1" source="nfv_wwdXfXc1_VH7iOFV-16" target="nfv_wwdXfXc1_VH7iOFV-15">
          <mxGeometry relative="1" as="geometry">
            <Array as="points">
              <mxPoint x="220" y="580" />
              <mxPoint x="715" y="580" />
            </Array>
          </mxGeometry>
        </mxCell>
        <mxCell id="nfv_wwdXfXc1_VH7iOFV-16" value="A25Films" style="swimlane;fontStyle=0;childLayout=stackLayout;horizontal=1;startSize=26;fillColor=#e1d5e7;horizontalStack=0;resizeParent=1;resizeParentMax=0;resizeLast=0;collapsible=1;marginBottom=0;whiteSpace=wrap;html=1;fontFamily=Helvetica;fontSize=12;textShadow=0;labelBorderColor=none;spacingTop=0;strokeColor=#9673a6;" vertex="1" parent="WIyWlLk6GJQsqaUBKTNV-1">
          <mxGeometry x="55" y="640" width="330" height="104" as="geometry" />
        </mxCell>
        <mxCell id="nfv_wwdXfXc1_VH7iOFV-17" value="createMovie():Movie" style="text;strokeColor=none;fillColor=none;align=left;verticalAlign=top;spacingLeft=4;spacingRight=4;overflow=hidden;rotatable=0;points=[[0,0.5],[1,0.5]];portConstraint=eastwest;whiteSpace=wrap;html=1;fontFamily=Helvetica;fontSize=12;textShadow=0;labelBorderColor=none;horizontal=1;spacingTop=0;" vertex="1" parent="nfv_wwdXfXc1_VH7iOFV-16">
          <mxGeometry y="26" width="330" height="26" as="geometry" />
        </mxCell>
        <mxCell id="nfv_wwdXfXc1_VH7iOFV-18" value="createTrailer():Trailer" style="text;strokeColor=none;fillColor=none;align=left;verticalAlign=top;spacingLeft=4;spacingRight=4;overflow=hidden;rotatable=0;points=[[0,0.5],[1,0.5]];portConstraint=eastwest;whiteSpace=wrap;html=1;fontFamily=Helvetica;fontSize=12;textShadow=0;labelBorderColor=none;horizontal=1;spacingTop=0;" vertex="1" parent="nfv_wwdXfXc1_VH7iOFV-16">
          <mxGeometry y="52" width="330" height="26" as="geometry" />
        </mxCell>
        <mxCell id="AEDuko17Ktxvkk8oFHkH-1" value="[...]" style="text;strokeColor=none;fillColor=none;align=left;verticalAlign=top;spacingLeft=4;spacingRight=4;overflow=hidden;rotatable=0;points=[[0,0.5],[1,0.5]];portConstraint=eastwest;whiteSpace=wrap;html=1;fontFamily=Helvetica;fontSize=12;textShadow=0;labelBorderColor=none;horizontal=1;spacingTop=0;" vertex="1" parent="nfv_wwdXfXc1_VH7iOFV-16">
          <mxGeometry y="78" width="330" height="26" as="geometry" />
        </mxCell>
        <mxCell id="nfv_wwdXfXc1_VH7iOFV-33" style="edgeStyle=orthogonalEdgeStyle;rounded=0;orthogonalLoop=1;jettySize=auto;html=1;exitX=0.25;exitY=0;exitDx=0;exitDy=0;entryX=0.5;entryY=1;entryDx=0;entryDy=0;fontFamily=Helvetica;fontSize=12;textShadow=0;labelBorderColor=none;horizontal=1;spacingTop=0;" edge="1" parent="WIyWlLk6GJQsqaUBKTNV-1" source="nfv_wwdXfXc1_VH7iOFV-20" target="nfv_wwdXfXc1_VH7iOFV-12">
          <mxGeometry relative="1" as="geometry" />
        </mxCell>
        <mxCell id="nfv_wwdXfXc1_VH7iOFV-36" value="&amp;lt;&amp;lt;initiate&amp;gt;&amp;gt;" style="edgeLabel;html=1;align=center;verticalAlign=middle;resizable=0;points=[];fontFamily=Helvetica;fontSize=12;textShadow=0;labelBorderColor=none;horizontal=1;spacingTop=0;" connectable="0" vertex="1" parent="nfv_wwdXfXc1_VH7iOFV-33">
          <mxGeometry x="-0.2567" y="-3" relative="1" as="geometry">
            <mxPoint x="-29" as="offset" />
          </mxGeometry>
        </mxCell>
        <mxCell id="nfv_wwdXfXc1_VH7iOFV-20" value="Tigersgate" style="swimlane;fontStyle=0;childLayout=stackLayout;horizontal=1;startSize=26;fillColor=#dae8fc;horizontalStack=0;resizeParent=1;resizeParentMax=0;resizeLast=0;collapsible=1;marginBottom=0;whiteSpace=wrap;html=1;fontFamily=Helvetica;fontSize=12;textShadow=0;labelBorderColor=none;spacingTop=0;strokeColor=#6c8ebf;" vertex="1" parent="WIyWlLk6GJQsqaUBKTNV-1">
          <mxGeometry x="455" y="640" width="330" height="104" as="geometry" />
        </mxCell>
        <mxCell id="nfv_wwdXfXc1_VH7iOFV-21" value="create_movie():Movie" style="text;strokeColor=none;fillColor=none;align=left;verticalAlign=top;spacingLeft=4;spacingRight=4;overflow=hidden;rotatable=0;points=[[0,0.5],[1,0.5]];portConstraint=eastwest;whiteSpace=wrap;html=1;fontFamily=Helvetica;fontSize=12;textShadow=0;labelBorderColor=none;horizontal=1;spacingTop=0;" vertex="1" parent="nfv_wwdXfXc1_VH7iOFV-20">
          <mxGeometry y="26" width="330" height="26" as="geometry" />
        </mxCell>
        <mxCell id="nfv_wwdXfXc1_VH7iOFV-22" value="createTrailer():Trailer" style="text;strokeColor=none;fillColor=none;align=left;verticalAlign=top;spacingLeft=4;spacingRight=4;overflow=hidden;rotatable=0;points=[[0,0.5],[1,0.5]];portConstraint=eastwest;whiteSpace=wrap;html=1;fontFamily=Helvetica;fontSize=12;textShadow=0;labelBorderColor=none;horizontal=1;spacingTop=0;" vertex="1" parent="nfv_wwdXfXc1_VH7iOFV-20">
          <mxGeometry y="52" width="330" height="26" as="geometry" />
        </mxCell>
        <mxCell id="AEDuko17Ktxvkk8oFHkH-0" value="[...]" style="text;strokeColor=none;fillColor=none;align=left;verticalAlign=top;spacingLeft=4;spacingRight=4;overflow=hidden;rotatable=0;points=[[0,0.5],[1,0.5]];portConstraint=eastwest;whiteSpace=wrap;html=1;fontFamily=Helvetica;fontSize=12;textShadow=0;labelBorderColor=none;horizontal=1;spacingTop=0;" vertex="1" parent="nfv_wwdXfXc1_VH7iOFV-20">
          <mxGeometry y="78" width="330" height="26" as="geometry" />
        </mxCell>
        <mxCell id="nfv_wwdXfXc1_VH7iOFV-25" style="edgeStyle=orthogonalEdgeStyle;rounded=0;orthogonalLoop=1;jettySize=auto;html=1;exitX=1;exitY=0.25;exitDx=0;exitDy=0;entryX=0.5;entryY=0;entryDx=0;entryDy=0;fontFamily=Helvetica;fontSize=12;textShadow=0;labelBorderColor=none;horizontal=1;spacingTop=0;" edge="1" parent="WIyWlLk6GJQsqaUBKTNV-1" source="nfv_wwdXfXc1_VH7iOFV-0" target="nfv_wwdXfXc1_VH7iOFV-4">
          <mxGeometry relative="1" as="geometry" />
        </mxCell>
        <mxCell id="nfv_wwdXfXc1_VH7iOFV-26" value="&amp;lt;&amp;lt;import&amp;gt;&amp;gt;" style="edgeLabel;html=1;align=center;verticalAlign=middle;resizable=0;points=[];fontFamily=Helvetica;fontSize=12;textShadow=0;labelBorderColor=none;horizontal=1;spacingTop=0;" connectable="0" vertex="1" parent="nfv_wwdXfXc1_VH7iOFV-25">
          <mxGeometry x="-0.1002" y="-1" relative="1" as="geometry">
            <mxPoint x="-62" y="-1" as="offset" />
          </mxGeometry>
        </mxCell>
        <mxCell id="nfv_wwdXfXc1_VH7iOFV-28" style="edgeStyle=orthogonalEdgeStyle;rounded=0;orthogonalLoop=1;jettySize=auto;html=1;exitX=1;exitY=0.5;exitDx=0;exitDy=0;entryX=0.5;entryY=0;entryDx=0;entryDy=0;fontFamily=Helvetica;fontSize=12;textShadow=0;labelBorderColor=none;horizontal=1;spacingTop=0;" edge="1" parent="WIyWlLk6GJQsqaUBKTNV-1" source="nfv_wwdXfXc1_VH7iOFV-3" target="Cddfaaqkk3JFuBGHHAQz-6">
          <mxGeometry relative="1" as="geometry">
            <Array as="points">
              <mxPoint x="280" y="110" />
              <mxPoint x="625" y="110" />
            </Array>
          </mxGeometry>
        </mxCell>
        <mxCell id="nfv_wwdXfXc1_VH7iOFV-32" style="edgeStyle=orthogonalEdgeStyle;rounded=0;orthogonalLoop=1;jettySize=auto;html=1;exitX=0.75;exitY=0;exitDx=0;exitDy=0;entryX=0.378;entryY=0.988;entryDx=0;entryDy=0;entryPerimeter=0;fontFamily=Helvetica;fontSize=12;textShadow=0;labelBorderColor=none;horizontal=1;spacingTop=0;" edge="1" parent="WIyWlLk6GJQsqaUBKTNV-1" source="nfv_wwdXfXc1_VH7iOFV-16" target="nfv_wwdXfXc1_VH7iOFV-13">
          <mxGeometry relative="1" as="geometry" />
        </mxCell>
        <mxCell id="nfv_wwdXfXc1_VH7iOFV-35" style="edgeStyle=orthogonalEdgeStyle;rounded=0;orthogonalLoop=1;jettySize=auto;html=1;exitX=0.25;exitY=0;exitDx=0;exitDy=0;entryX=0.618;entryY=1;entryDx=0;entryDy=0;entryPerimeter=0;fontFamily=Helvetica;fontSize=12;textShadow=0;labelBorderColor=none;horizontal=1;spacingTop=0;" edge="1" parent="WIyWlLk6GJQsqaUBKTNV-1" source="nfv_wwdXfXc1_VH7iOFV-20" target="nfv_wwdXfXc1_VH7iOFV-14">
          <mxGeometry relative="1" as="geometry" />
        </mxCell>
        <mxCell id="nfv_wwdXfXc1_VH7iOFV-39" value="&amp;lt;&amp;lt;import&amp;gt;&amp;gt;" style="edgeLabel;html=1;align=center;verticalAlign=middle;resizable=0;points=[];fontFamily=Helvetica;fontSize=12;textShadow=0;labelBorderColor=none;horizontal=1;spacingTop=0;" connectable="0" vertex="1" parent="WIyWlLk6GJQsqaUBKTNV-1">
          <mxGeometry x="285.9995999999999" y="129.99960000000004" as="geometry">
            <mxPoint x="55" y="-23" as="offset" />
          </mxGeometry>
        </mxCell>
        <mxCell id="nfv_wwdXfXc1_VH7iOFV-41" style="edgeStyle=orthogonalEdgeStyle;rounded=0;orthogonalLoop=1;jettySize=auto;html=1;exitX=1;exitY=0.5;exitDx=0;exitDy=0;entryX=0.512;entryY=0.985;entryDx=0;entryDy=0;entryPerimeter=0;fontFamily=Helvetica;fontSize=12;textShadow=0;labelBorderColor=none;horizontal=1;spacingTop=0;" edge="1" parent="WIyWlLk6GJQsqaUBKTNV-1" source="nfv_wwdXfXc1_VH7iOFV-17" target="nfv_wwdXfXc1_VH7iOFV-5">
          <mxGeometry relative="1" as="geometry">
            <Array as="points">
              <mxPoint x="417" y="679" />
            </Array>
          </mxGeometry>
        </mxCell>
        <mxCell id="nfv_wwdXfXc1_VH7iOFV-43" style="edgeStyle=orthogonalEdgeStyle;rounded=0;orthogonalLoop=1;jettySize=auto;html=1;exitX=0;exitY=0.5;exitDx=0;exitDy=0;entryX=0.509;entryY=1.015;entryDx=0;entryDy=0;entryPerimeter=0;fontFamily=Helvetica;fontSize=12;textShadow=0;labelBorderColor=none;horizontal=1;spacingTop=0;" edge="1" parent="WIyWlLk6GJQsqaUBKTNV-1" source="nfv_wwdXfXc1_VH7iOFV-21" target="nfv_wwdXfXc1_VH7iOFV-5">
          <mxGeometry relative="1" as="geometry" />
        </mxCell>
        <mxCell id="nfv_wwdXfXc1_VH7iOFV-44" value="&amp;lt;&amp;lt;implement&amp;gt;&amp;gt;" style="edgeLabel;html=1;align=center;verticalAlign=middle;resizable=0;points=[];fontFamily=Helvetica;fontSize=12;textShadow=0;labelBorderColor=none;horizontal=1;spacingTop=0;" connectable="0" vertex="1" parent="nfv_wwdXfXc1_VH7iOFV-43">
          <mxGeometry x="0.4605" y="-4" relative="1" as="geometry">
            <mxPoint as="offset" />
          </mxGeometry>
        </mxCell>
        <mxCell id="Cddfaaqkk3JFuBGHHAQz-0" value="Movie" style="swimlane;fontStyle=0;childLayout=stackLayout;horizontal=1;startSize=26;fillColor=none;horizontalStack=0;resizeParent=1;resizeParentMax=0;resizeLast=0;collapsible=1;marginBottom=0;whiteSpace=wrap;html=1;fontFamily=Helvetica;fontSize=12;textShadow=0;labelBorderColor=none;spacingTop=0;" vertex="1" parent="WIyWlLk6GJQsqaUBKTNV-1">
          <mxGeometry x="130" y="220" width="140" height="208" as="geometry" />
        </mxCell>
        <mxCell id="Cddfaaqkk3JFuBGHHAQz-15" value="+ title: string" style="text;strokeColor=none;fillColor=none;align=left;verticalAlign=top;spacingLeft=4;spacingRight=4;overflow=hidden;rotatable=0;points=[[0,0.5],[1,0.5]];portConstraint=eastwest;whiteSpace=wrap;html=1;fontFamily=Helvetica;fontSize=12;textShadow=0;labelBorderColor=none;horizontal=1;spacingTop=0;" vertex="1" parent="Cddfaaqkk3JFuBGHHAQz-0">
          <mxGeometry y="26" width="140" height="26" as="geometry" />
        </mxCell>
        <mxCell id="Cddfaaqkk3JFuBGHHAQz-1" value="+ length: int" style="text;strokeColor=none;fillColor=none;align=left;verticalAlign=top;spacingLeft=4;spacingRight=4;overflow=hidden;rotatable=0;points=[[0,0.5],[1,0.5]];portConstraint=eastwest;whiteSpace=wrap;html=1;fontFamily=Helvetica;fontSize=12;textShadow=0;labelBorderColor=none;horizontal=1;spacingTop=0;" vertex="1" parent="Cddfaaqkk3JFuBGHHAQz-0">
          <mxGeometry y="52" width="140" height="26" as="geometry" />
        </mxCell>
        <mxCell id="Cddfaaqkk3JFuBGHHAQz-2" value="+ regisseur: string" style="text;strokeColor=none;fillColor=none;align=left;verticalAlign=top;spacingLeft=4;spacingRight=4;overflow=hidden;rotatable=0;points=[[0,0.5],[1,0.5]];portConstraint=eastwest;whiteSpace=wrap;html=1;fontFamily=Helvetica;fontSize=12;textShadow=0;labelBorderColor=none;horizontal=1;spacingTop=0;" vertex="1" parent="Cddfaaqkk3JFuBGHHAQz-0">
          <mxGeometry y="78" width="140" height="26" as="geometry" />
        </mxCell>
        <mxCell id="Cddfaaqkk3JFuBGHHAQz-3" value="+ lead_actor: string" style="text;strokeColor=none;fillColor=none;align=left;verticalAlign=top;spacingLeft=4;spacingRight=4;overflow=hidden;rotatable=0;points=[[0,0.5],[1,0.5]];portConstraint=eastwest;whiteSpace=wrap;html=1;fontFamily=Helvetica;fontSize=12;textShadow=0;labelBorderColor=none;horizontal=1;spacingTop=0;" vertex="1" parent="Cddfaaqkk3JFuBGHHAQz-0">
          <mxGeometry y="104" width="140" height="26" as="geometry" />
        </mxCell>
        <mxCell id="AEDuko17Ktxvkk8oFHkH-9" value="+ genre: string" style="text;strokeColor=none;fillColor=none;align=left;verticalAlign=top;spacingLeft=4;spacingRight=4;overflow=hidden;rotatable=0;points=[[0,0.5],[1,0.5]];portConstraint=eastwest;whiteSpace=wrap;html=1;fontFamily=Helvetica;fontSize=12;textShadow=0;labelBorderColor=none;horizontal=1;spacingTop=0;" vertex="1" parent="Cddfaaqkk3JFuBGHHAQz-0">
          <mxGeometry y="130" width="140" height="26" as="geometry" />
        </mxCell>
        <mxCell id="AEDuko17Ktxvkk8oFHkH-10" style="text;strokeColor=none;fillColor=none;align=left;verticalAlign=top;spacingLeft=4;spacingRight=4;overflow=hidden;rotatable=0;points=[[0,0.5],[1,0.5]];portConstraint=eastwest;whiteSpace=wrap;html=1;fontFamily=Helvetica;fontSize=12;textShadow=0;labelBorderColor=none;horizontal=1;spacingTop=0;" vertex="1" parent="Cddfaaqkk3JFuBGHHAQz-0">
          <mxGeometry y="156" width="140" height="26" as="geometry" />
        </mxCell>
        <mxCell id="AEDuko17Ktxvkk8oFHkH-8" value="display(): string" style="text;strokeColor=none;fillColor=none;align=left;verticalAlign=top;spacingLeft=4;spacingRight=4;overflow=hidden;rotatable=0;points=[[0,0.5],[1,0.5]];portConstraint=eastwest;whiteSpace=wrap;html=1;fontFamily=Helvetica;fontSize=12;textShadow=0;labelBorderColor=none;horizontal=1;spacingTop=0;" vertex="1" parent="Cddfaaqkk3JFuBGHHAQz-0">
          <mxGeometry y="182" width="140" height="26" as="geometry" />
        </mxCell>
        <mxCell id="AEDuko17Ktxvkk8oFHkH-11" value="" style="endArrow=none;html=1;rounded=0;entryX=1;entryY=0.5;entryDx=0;entryDy=0;exitX=0;exitY=0.5;exitDx=0;exitDy=0;" edge="1" parent="Cddfaaqkk3JFuBGHHAQz-0" source="AEDuko17Ktxvkk8oFHkH-10" target="AEDuko17Ktxvkk8oFHkH-10">
          <mxGeometry width="50" height="50" relative="1" as="geometry">
            <mxPoint x="-330" y="103.60000000000002" as="sourcePoint" />
            <mxPoint x="-180" y="103.60000000000002" as="targetPoint" />
          </mxGeometry>
        </mxCell>
        <mxCell id="Cddfaaqkk3JFuBGHHAQz-6" value="Trailer" style="swimlane;fontStyle=0;childLayout=stackLayout;horizontal=1;startSize=26;fillColor=none;horizontalStack=0;resizeParent=1;resizeParentMax=0;resizeLast=0;collapsible=1;marginBottom=0;whiteSpace=wrap;html=1;fontFamily=Helvetica;fontSize=12;textShadow=0;labelBorderColor=none;spacingTop=0;" vertex="1" parent="WIyWlLk6GJQsqaUBKTNV-1">
          <mxGeometry x="550" y="230" width="150" height="182" as="geometry">
            <mxRectangle x="720" y="201" width="70" height="30" as="alternateBounds" />
          </mxGeometry>
        </mxCell>
        <mxCell id="Cddfaaqkk3JFuBGHHAQz-16" value="+ movie: movie" style="text;strokeColor=none;fillColor=none;align=left;verticalAlign=top;spacingLeft=4;spacingRight=4;overflow=hidden;rotatable=0;points=[[0,0.5],[1,0.5]];portConstraint=eastwest;whiteSpace=wrap;html=1;fontFamily=Helvetica;fontSize=12;textShadow=0;labelBorderColor=none;horizontal=1;spacingTop=0;" vertex="1" parent="Cddfaaqkk3JFuBGHHAQz-6">
          <mxGeometry y="26" width="150" height="26" as="geometry" />
        </mxCell>
        <mxCell id="Cddfaaqkk3JFuBGHHAQz-7" value="&lt;div&gt;+ length: int&lt;/div&gt;" style="text;strokeColor=none;fillColor=none;align=left;verticalAlign=top;spacingLeft=4;spacingRight=4;overflow=hidden;rotatable=0;points=[[0,0.5],[1,0.5]];portConstraint=eastwest;whiteSpace=wrap;html=1;fontFamily=Helvetica;fontSize=12;textShadow=0;labelBorderColor=none;horizontal=1;spacingTop=0;" vertex="1" parent="Cddfaaqkk3JFuBGHHAQz-6">
          <mxGeometry y="52" width="150" height="26" as="geometry" />
        </mxCell>
        <mxCell id="Cddfaaqkk3JFuBGHHAQz-11" value="+ Release: string" style="text;strokeColor=none;fillColor=none;align=left;verticalAlign=top;spacingLeft=4;spacingRight=4;overflow=hidden;rotatable=0;points=[[0,0.5],[1,0.5]];portConstraint=eastwest;whiteSpace=wrap;html=1;fontFamily=Helvetica;fontSize=12;textShadow=0;labelBorderColor=none;horizontal=1;spacingTop=0;" vertex="1" parent="Cddfaaqkk3JFuBGHHAQz-6">
          <mxGeometry y="78" width="150" height="26" as="geometry" />
        </mxCell>
        <mxCell id="AEDuko17Ktxvkk8oFHkH-3" style="text;strokeColor=none;fillColor=none;align=left;verticalAlign=top;spacingLeft=4;spacingRight=4;overflow=hidden;rotatable=0;points=[[0,0.5],[1,0.5]];portConstraint=eastwest;whiteSpace=wrap;html=1;fontFamily=Helvetica;fontSize=12;textShadow=0;labelBorderColor=none;horizontal=1;spacingTop=0;" vertex="1" parent="Cddfaaqkk3JFuBGHHAQz-6">
          <mxGeometry y="104" width="150" height="26" as="geometry" />
        </mxCell>
        <mxCell id="AEDuko17Ktxvkk8oFHkH-6" value="get_release_date(): string" style="text;strokeColor=none;fillColor=none;align=left;verticalAlign=top;spacingLeft=4;spacingRight=4;overflow=hidden;rotatable=0;points=[[0,0.5],[1,0.5]];portConstraint=eastwest;whiteSpace=wrap;html=1;fontFamily=Helvetica;fontSize=12;textShadow=0;labelBorderColor=none;horizontal=1;spacingTop=0;" vertex="1" parent="Cddfaaqkk3JFuBGHHAQz-6">
          <mxGeometry y="130" width="150" height="26" as="geometry" />
        </mxCell>
        <mxCell id="AEDuko17Ktxvkk8oFHkH-5" value="display(): string" style="text;strokeColor=none;fillColor=none;align=left;verticalAlign=top;spacingLeft=4;spacingRight=4;overflow=hidden;rotatable=0;points=[[0,0.5],[1,0.5]];portConstraint=eastwest;whiteSpace=wrap;html=1;fontFamily=Helvetica;fontSize=12;textShadow=0;labelBorderColor=none;horizontal=1;spacingTop=0;" vertex="1" parent="Cddfaaqkk3JFuBGHHAQz-6">
          <mxGeometry y="156" width="150" height="26" as="geometry" />
        </mxCell>
        <mxCell id="AEDuko17Ktxvkk8oFHkH-7" value="" style="endArrow=none;html=1;rounded=0;entryX=1;entryY=0.5;entryDx=0;entryDy=0;exitX=0;exitY=0.5;exitDx=0;exitDy=0;" edge="1" parent="Cddfaaqkk3JFuBGHHAQz-6" source="AEDuko17Ktxvkk8oFHkH-3" target="AEDuko17Ktxvkk8oFHkH-3">
          <mxGeometry width="50" height="50" relative="1" as="geometry">
            <mxPoint x="-860" y="170" as="sourcePoint" />
            <mxPoint x="-810" y="120" as="targetPoint" />
          </mxGeometry>
        </mxCell>
        <mxCell id="gckyrx7bfHjQPPwGydUb-12" style="edgeStyle=orthogonalEdgeStyle;rounded=0;orthogonalLoop=1;jettySize=auto;html=1;exitX=0.5;exitY=0;exitDx=0;exitDy=0;entryX=0;entryY=0.5;entryDx=0;entryDy=0;fillColor=#d5e8d4;strokeColor=#82b366;" edge="1" parent="WIyWlLk6GJQsqaUBKTNV-1" source="gckyrx7bfHjQPPwGydUb-0" target="Cddfaaqkk3JFuBGHHAQz-3">
          <mxGeometry relative="1" as="geometry" />
        </mxCell>
        <mxCell id="gckyrx7bfHjQPPwGydUb-0" value="ComedyMovie" style="html=1;whiteSpace=wrap;fontFamily=Helvetica;fontSize=12;textShadow=0;labelBorderColor=none;horizontal=1;spacingTop=0;fillColor=#d5e8d4;strokeColor=#82b366;" vertex="1" parent="WIyWlLk6GJQsqaUBKTNV-1">
          <mxGeometry x="-70" y="470" width="110" height="50" as="geometry" />
        </mxCell>
        <mxCell id="gckyrx7bfHjQPPwGydUb-13" style="edgeStyle=orthogonalEdgeStyle;rounded=0;orthogonalLoop=1;jettySize=auto;html=1;exitX=0.5;exitY=0;exitDx=0;exitDy=0;entryX=1;entryY=0.5;entryDx=0;entryDy=0;fillColor=#d5e8d4;strokeColor=#82b366;" edge="1" parent="WIyWlLk6GJQsqaUBKTNV-1" source="gckyrx7bfHjQPPwGydUb-1" target="Cddfaaqkk3JFuBGHHAQz-11">
          <mxGeometry relative="1" as="geometry" />
        </mxCell>
        <mxCell id="gckyrx7bfHjQPPwGydUb-1" value="ComedyTrailer" style="html=1;whiteSpace=wrap;fontFamily=Helvetica;fontSize=12;textShadow=0;labelBorderColor=none;horizontal=1;spacingTop=0;fillColor=#d5e8d4;strokeColor=#82b366;" vertex="1" parent="WIyWlLk6GJQsqaUBKTNV-1">
          <mxGeometry x="800" y="480" width="110" height="50" as="geometry" />
        </mxCell>
        <mxCell id="gckyrx7bfHjQPPwGydUb-8" style="edgeStyle=orthogonalEdgeStyle;rounded=0;orthogonalLoop=1;jettySize=auto;html=1;exitX=0;exitY=0.5;exitDx=0;exitDy=0;entryX=0.5;entryY=1;entryDx=0;entryDy=0;fillColor=#d5e8d4;strokeColor=#82b366;" edge="1" parent="WIyWlLk6GJQsqaUBKTNV-1" source="gckyrx7bfHjQPPwGydUb-2" target="gckyrx7bfHjQPPwGydUb-0">
          <mxGeometry relative="1" as="geometry" />
        </mxCell>
        <mxCell id="gckyrx7bfHjQPPwGydUb-2" value="ConcreteComedyFactory" style="swimlane;fontStyle=0;childLayout=stackLayout;horizontal=1;startSize=26;fillColor=#d5e8d4;horizontalStack=0;resizeParent=1;resizeParentMax=0;resizeLast=0;collapsible=1;marginBottom=0;whiteSpace=wrap;html=1;fontFamily=Helvetica;fontSize=12;textShadow=0;labelBorderColor=none;spacingTop=0;strokeColor=#82b366;" vertex="1" parent="WIyWlLk6GJQsqaUBKTNV-1">
          <mxGeometry x="260" y="800" width="330" height="78" as="geometry" />
        </mxCell>
        <mxCell id="gckyrx7bfHjQPPwGydUb-3" value="createMovie():Movie" style="text;strokeColor=#82b366;fillColor=#d5e8d4;align=left;verticalAlign=top;spacingLeft=4;spacingRight=4;overflow=hidden;rotatable=0;points=[[0,0.5],[1,0.5]];portConstraint=eastwest;whiteSpace=wrap;html=1;fontFamily=Helvetica;fontSize=12;textShadow=0;labelBorderColor=none;horizontal=1;spacingTop=0;" vertex="1" parent="gckyrx7bfHjQPPwGydUb-2">
          <mxGeometry y="26" width="330" height="26" as="geometry" />
        </mxCell>
        <mxCell id="gckyrx7bfHjQPPwGydUb-4" value="createTrailer():Trailer" style="text;strokeColor=#82b366;fillColor=#d5e8d4;align=left;verticalAlign=top;spacingLeft=4;spacingRight=4;overflow=hidden;rotatable=0;points=[[0,0.5],[1,0.5]];portConstraint=eastwest;whiteSpace=wrap;html=1;fontFamily=Helvetica;fontSize=12;textShadow=0;labelBorderColor=none;horizontal=1;spacingTop=0;" vertex="1" parent="gckyrx7bfHjQPPwGydUb-2">
          <mxGeometry y="52" width="330" height="26" as="geometry" />
        </mxCell>
        <mxCell id="gckyrx7bfHjQPPwGydUb-7" value="" style="endArrow=none;html=1;rounded=0;exitX=0.485;exitY=0;exitDx=0;exitDy=0;exitPerimeter=0;" edge="1" parent="WIyWlLk6GJQsqaUBKTNV-1">
          <mxGeometry width="50" height="50" relative="1" as="geometry">
            <mxPoint x="413.9700000000002" y="800" as="sourcePoint" />
            <mxPoint x="413.92" y="680" as="targetPoint" />
          </mxGeometry>
        </mxCell>
        <mxCell id="gckyrx7bfHjQPPwGydUb-9" style="edgeStyle=orthogonalEdgeStyle;rounded=0;orthogonalLoop=1;jettySize=auto;html=1;exitX=1;exitY=0.5;exitDx=0;exitDy=0;entryX=0.5;entryY=1;entryDx=0;entryDy=0;fillColor=#d5e8d4;strokeColor=#82b366;" edge="1" parent="WIyWlLk6GJQsqaUBKTNV-1" source="gckyrx7bfHjQPPwGydUb-3" target="gckyrx7bfHjQPPwGydUb-1">
          <mxGeometry relative="1" as="geometry" />
        </mxCell>
        <mxCell id="gckyrx7bfHjQPPwGydUb-10" value="&amp;lt;&amp;lt;initiate&amp;gt;&amp;gt;" style="edgeLabel;html=1;align=center;verticalAlign=middle;resizable=0;points=[];fontFamily=Helvetica;fontSize=12;textShadow=0;labelBorderColor=none;horizontal=1;spacingTop=0;" connectable="0" vertex="1" parent="WIyWlLk6GJQsqaUBKTNV-1">
          <mxGeometry x="130" y="839" as="geometry" />
        </mxCell>
        <mxCell id="gckyrx7bfHjQPPwGydUb-11" value="&amp;lt;&amp;lt;initiate&amp;gt;&amp;gt;" style="edgeLabel;html=1;align=center;verticalAlign=middle;resizable=0;points=[];fontFamily=Helvetica;fontSize=12;textShadow=0;labelBorderColor=none;horizontal=1;spacingTop=0;" connectable="0" vertex="1" parent="WIyWlLk6GJQsqaUBKTNV-1">
          <mxGeometry x="715" y="839" as="geometry" />
        </mxCell>
        <mxCell id="AEDuko17Ktxvkk8oFHkH-13" value="&amp;lt;&amp;lt;import&amp;gt;&amp;gt;" style="edgeLabel;html=1;align=center;verticalAlign=middle;resizable=0;points=[];fontFamily=Helvetica;fontSize=12;textShadow=0;labelBorderColor=none;horizontal=1;spacingTop=0;" connectable="0" vertex="1" parent="WIyWlLk6GJQsqaUBKTNV-1">
          <mxGeometry x="149.99959999999987" y="209.99960000000004" as="geometry">
            <mxPoint x="55" y="-23" as="offset" />
          </mxGeometry>
        </mxCell>
      </root>
    </mxGraphModel>
  </diagram>
</mxfile>
